<svg width="24" height="24" viewBox="0 0 24 24" fill="none" xmlns="http://www.w3.org/2000/svg">
<path d="M23.6975 22.2711L16.8116 15.3803C18.1691 13.7522 18.9855 11.6717 18.9855 9.39932C18.9855 4.21519 14.731 0 9.49769 0C4.26437 0 0 4.2201 0 9.40424C0 14.5884 4.25453 18.8036 9.48786 18.8036C11.711 18.8036 13.7571 18.0412 15.3803 16.7673L22.2908 23.6778C22.6941 24.0812 23.2942 24.0812 23.6975 23.6778C24.1008 23.2745 24.1008 22.6744 23.6975 22.2711ZM2.0166 9.40424C2.0166 5.33169 5.37104 2.02152 9.48786 2.02152C13.6047 2.02152 16.9591 5.33169 16.9591 9.40424C16.9591 13.4768 13.6047 16.787 9.48786 16.787C5.37104 16.787 2.0166 13.4719 2.0166 9.40424Z" fill="white"/>
</svg>
